<svg width="67" height="28" viewBox="0 0 67 28" fill="none" xmlns="http://www.w3.org/2000/svg">
<path d="M4.14844 3.22461L1.32422 11H0.169922L3.42188 2.46875H4.16602L4.14844 3.22461ZM6.51562 11L3.68555 3.22461L3.66797 2.46875H4.41211L7.67578 11H6.51562ZM6.36914 7.8418V8.76758H1.57617V7.8418H6.36914ZM9.73828 5.65625V11H8.6543V4.66016H9.70898L9.73828 5.65625ZM11.7188 4.625L11.7129 5.63281C11.623 5.61328 11.5371 5.60156 11.4551 5.59766C11.377 5.58984 11.2871 5.58594 11.1855 5.58594C10.9355 5.58594 10.7148 5.625 10.5234 5.70312C10.332 5.78125 10.1699 5.89062 10.0371 6.03125C9.9043 6.17188 9.79883 6.33984 9.7207 6.53516C9.64648 6.72656 9.59766 6.9375 9.57422 7.16797L9.26953 7.34375C9.26953 6.96094 9.30664 6.60156 9.38086 6.26562C9.45898 5.92969 9.57812 5.63281 9.73828 5.375C9.89844 5.11328 10.1016 4.91016 10.3477 4.76562C10.5977 4.61719 10.8945 4.54297 11.2383 4.54297C11.3164 4.54297 11.4062 4.55273 11.5078 4.57227C11.6094 4.58789 11.6797 4.60547 11.7188 4.625ZM16.2246 9.91602V6.65234C16.2246 6.40234 16.1738 6.18555 16.0723 6.00195C15.9746 5.81445 15.8262 5.66992 15.627 5.56836C15.4277 5.4668 15.1816 5.41602 14.8887 5.41602C14.6152 5.41602 14.375 5.46289 14.168 5.55664C13.9648 5.65039 13.8047 5.77344 13.6875 5.92578C13.5742 6.07812 13.5176 6.24219 13.5176 6.41797H12.4336C12.4336 6.19141 12.4922 5.9668 12.6094 5.74414C12.7266 5.52148 12.8945 5.32031 13.1133 5.14062C13.3359 4.95703 13.6016 4.8125 13.9102 4.70703C14.2227 4.59766 14.5703 4.54297 14.9531 4.54297C15.4141 4.54297 15.8203 4.62109 16.1719 4.77734C16.5273 4.93359 16.8047 5.16992 17.0039 5.48633C17.207 5.79883 17.3086 6.19141 17.3086 6.66406V9.61719C17.3086 9.82812 17.3262 10.0527 17.3613 10.291C17.4004 10.5293 17.457 10.7344 17.5312 10.9062V11H16.4004C16.3457 10.875 16.3027 10.709 16.2715 10.502C16.2402 10.291 16.2246 10.0957 16.2246 9.91602ZM16.4121 7.15625L16.4238 7.91797H15.3281C15.0195 7.91797 14.7441 7.94336 14.502 7.99414C14.2598 8.04102 14.0566 8.11328 13.8926 8.21094C13.7285 8.30859 13.6035 8.43164 13.5176 8.58008C13.4316 8.72461 13.3887 8.89453 13.3887 9.08984C13.3887 9.28906 13.4336 9.4707 13.5234 9.63477C13.6133 9.79883 13.748 9.92969 13.9277 10.0273C14.1113 10.1211 14.3359 10.168 14.6016 10.168C14.9336 10.168 15.2266 10.0977 15.4805 9.95703C15.7344 9.81641 15.9355 9.64453 16.084 9.44141C16.2363 9.23828 16.3184 9.04102 16.3301 8.84961L16.793 9.37109C16.7656 9.53516 16.6914 9.7168 16.5703 9.91602C16.4492 10.1152 16.2871 10.3066 16.084 10.4902C15.8848 10.6699 15.6465 10.8203 15.3691 10.9414C15.0957 11.0586 14.7871 11.1172 14.4434 11.1172C14.0137 11.1172 13.6367 11.0332 13.3125 10.8652C12.9922 10.6973 12.7422 10.4727 12.5625 10.1914C12.3867 9.90625 12.2988 9.58789 12.2988 9.23633C12.2988 8.89648 12.3652 8.59766 12.498 8.33984C12.6309 8.07812 12.8223 7.86133 13.0723 7.68945C13.3223 7.51367 13.623 7.38086 13.9746 7.29102C14.3262 7.20117 14.7188 7.15625 15.1523 7.15625H16.4121ZM23.0566 2.45703H23.1504V3.37695H23.0566C22.4824 3.37695 22.002 3.4707 21.6152 3.6582C21.2285 3.8418 20.9219 4.08984 20.6953 4.40234C20.4688 4.71094 20.3047 5.05859 20.2031 5.44531C20.1055 5.83203 20.0566 6.22461 20.0566 6.62305V7.87695C20.0566 8.25586 20.1016 8.5918 20.1914 8.88477C20.2812 9.17383 20.4043 9.41797 20.5605 9.61719C20.7168 9.81641 20.8926 9.9668 21.0879 10.0684C21.2871 10.1699 21.4941 10.2207 21.709 10.2207C21.959 10.2207 22.1816 10.1738 22.377 10.0801C22.5723 9.98242 22.7363 9.84766 22.8691 9.67578C23.0059 9.5 23.1094 9.29297 23.1797 9.05469C23.25 8.81641 23.2852 8.55469 23.2852 8.26953C23.2852 8.01562 23.2539 7.77148 23.1914 7.53711C23.1289 7.29883 23.0332 7.08789 22.9043 6.9043C22.7754 6.7168 22.6133 6.57031 22.418 6.46484C22.2266 6.35547 21.998 6.30078 21.7324 6.30078C21.4316 6.30078 21.1504 6.375 20.8887 6.52344C20.6309 6.66797 20.418 6.85938 20.25 7.09766C20.0859 7.33203 19.9922 7.58789 19.9688 7.86523L19.3945 7.85938C19.4492 7.42188 19.5508 7.04883 19.6992 6.74023C19.8516 6.42773 20.0391 6.17383 20.2617 5.97852C20.4883 5.7793 20.7402 5.63477 21.0176 5.54492C21.2988 5.45117 21.5957 5.4043 21.9082 5.4043C22.334 5.4043 22.7012 5.48438 23.0098 5.64453C23.3184 5.80469 23.5723 6.01953 23.7715 6.28906C23.9707 6.55469 24.1172 6.85547 24.2109 7.19141C24.3086 7.52344 24.3574 7.86523 24.3574 8.2168C24.3574 8.61914 24.3008 8.99609 24.1875 9.34766C24.0742 9.69922 23.9043 10.0078 23.6777 10.2734C23.4551 10.5391 23.1797 10.7461 22.8516 10.8945C22.5234 11.043 22.1426 11.1172 21.709 11.1172C21.248 11.1172 20.8457 11.0234 20.502 10.8359C20.1582 10.6445 19.873 10.3906 19.6465 10.0742C19.4199 9.75781 19.25 9.40625 19.1367 9.01953C19.0234 8.63281 18.9668 8.24023 18.9668 7.8418V7.33203C18.9668 6.73047 19.0273 6.14062 19.1484 5.5625C19.2695 4.98438 19.4785 4.46094 19.7754 3.99219C20.0762 3.52344 20.4922 3.15039 21.0234 2.87305C21.5547 2.5957 22.2324 2.45703 23.0566 2.45703ZM26.9414 4.66016V11H25.8516V4.66016H26.9414ZM25.7695 2.97852C25.7695 2.80273 25.8223 2.6543 25.9277 2.5332C26.0371 2.41211 26.1973 2.35156 26.4082 2.35156C26.6152 2.35156 26.7734 2.41211 26.8828 2.5332C26.9961 2.6543 27.0527 2.80273 27.0527 2.97852C27.0527 3.14648 26.9961 3.29102 26.8828 3.41211C26.7734 3.5293 26.6152 3.58789 26.4082 3.58789C26.1973 3.58789 26.0371 3.5293 25.9277 3.41211C25.8223 3.29102 25.7695 3.14648 25.7695 2.97852Z" fill="url(#paint0_linear_3_6)"/>
<path d="M5.87109 16.4688H6.99609V22.2402C6.99609 22.8809 6.85352 23.4141 6.56836 23.8398C6.2832 24.2656 5.9043 24.5859 5.43164 24.8008C4.96289 25.0117 4.45312 25.1172 3.90234 25.1172C3.32422 25.1172 2.80078 25.0117 2.33203 24.8008C1.86719 24.5859 1.49805 24.2656 1.22461 23.8398C0.955078 23.4141 0.820312 22.8809 0.820312 22.2402V16.4688H1.93945V22.2402C1.93945 22.6855 2.02148 23.0527 2.18555 23.3418C2.34961 23.6309 2.57812 23.8457 2.87109 23.9863C3.16797 24.127 3.51172 24.1973 3.90234 24.1973C4.29688 24.1973 4.64062 24.127 4.93359 23.9863C5.23047 23.8457 5.46094 23.6309 5.625 23.3418C5.78906 23.0527 5.87109 22.6855 5.87109 22.2402V16.4688ZM9.98438 16.4688V25H8.85352V16.4688H9.98438Z" fill="url(#paint1_linear_3_6)"/>
<path d="M18.8496 23.7695V16H19.9395V25H18.9434L18.8496 23.7695ZM14.584 21.9004V21.7773C14.584 21.293 14.6426 20.8535 14.7598 20.459C14.8809 20.0605 15.0508 19.7188 15.2695 19.4336C15.4922 19.1484 15.7559 18.9297 16.0605 18.7773C16.3691 18.6211 16.7129 18.543 17.0918 18.543C17.4902 18.543 17.8379 18.6133 18.1348 18.7539C18.4355 18.8906 18.6895 19.0918 18.8965 19.3574C19.1074 19.6191 19.2734 19.9355 19.3945 20.3066C19.5156 20.6777 19.5996 21.0977 19.6465 21.5664V22.1055C19.6035 22.5703 19.5195 22.9883 19.3945 23.3594C19.2734 23.7305 19.1074 24.0469 18.8965 24.3086C18.6895 24.5703 18.4355 24.7715 18.1348 24.9121C17.834 25.0488 17.4824 25.1172 17.0801 25.1172C16.709 25.1172 16.3691 25.0371 16.0605 24.877C15.7559 24.7168 15.4922 24.4922 15.2695 24.2031C15.0508 23.9141 14.8809 23.5742 14.7598 23.1836C14.6426 22.7891 14.584 22.3613 14.584 21.9004ZM15.6738 21.7773V21.9004C15.6738 22.2168 15.7051 22.5137 15.7676 22.791C15.834 23.0684 15.9355 23.3125 16.0723 23.5234C16.209 23.7344 16.3828 23.9004 16.5938 24.0215C16.8047 24.1387 17.0566 24.1973 17.3496 24.1973C17.709 24.1973 18.0039 24.1211 18.2344 23.9688C18.4688 23.8164 18.6562 23.6152 18.7969 23.3652C18.9375 23.1152 19.0469 22.8438 19.125 22.5508V21.1387C19.0781 20.9238 19.0098 20.7168 18.9199 20.5176C18.834 20.3145 18.7207 20.1348 18.5801 19.9785C18.4434 19.8184 18.2734 19.6914 18.0703 19.5977C17.8711 19.5039 17.6348 19.457 17.3613 19.457C17.0645 19.457 16.8086 19.5195 16.5938 19.6445C16.3828 19.7656 16.209 19.9336 16.0723 20.1484C15.9355 20.3594 15.834 20.6055 15.7676 20.8867C15.7051 21.1641 15.6738 21.4609 15.6738 21.7773ZM24.2578 25.1172C23.8164 25.1172 23.416 25.043 23.0566 24.8945C22.7012 24.7422 22.3945 24.5293 22.1367 24.2559C21.8828 23.9824 21.6875 23.6582 21.5508 23.2832C21.4141 22.9082 21.3457 22.498 21.3457 22.0527V21.8066C21.3457 21.291 21.4219 20.832 21.5742 20.4297C21.7266 20.0234 21.9336 19.6797 22.1953 19.3984C22.457 19.1172 22.7539 18.9043 23.0859 18.7598C23.418 18.6152 23.7617 18.543 24.1172 18.543C24.5703 18.543 24.9609 18.6211 25.2891 18.7773C25.6211 18.9336 25.8926 19.1523 26.1035 19.4336C26.3145 19.7109 26.4707 20.0391 26.5723 20.418C26.6738 20.793 26.7246 21.2031 26.7246 21.6484V22.1348H21.9902V21.25H25.6406V21.168C25.625 20.8867 25.5664 20.6133 25.4648 20.3477C25.3672 20.082 25.2109 19.8633 24.9961 19.6914C24.7812 19.5195 24.4883 19.4336 24.1172 19.4336C23.8711 19.4336 23.6445 19.4863 23.4375 19.5918C23.2305 19.6934 23.0527 19.8457 22.9043 20.0488C22.7559 20.252 22.6406 20.5 22.5586 20.793C22.4766 21.0859 22.4355 21.4238 22.4355 21.8066V22.0527C22.4355 22.3535 22.4766 22.6367 22.5586 22.9023C22.6445 23.1641 22.7676 23.3945 22.9277 23.5938C23.0918 23.793 23.2891 23.9492 23.5195 24.0625C23.7539 24.1758 24.0195 24.2324 24.3164 24.2324C24.6992 24.2324 25.0234 24.1543 25.2891 23.998C25.5547 23.8418 25.7871 23.6328 25.9863 23.3711L26.6426 23.8926C26.5059 24.0996 26.332 24.2969 26.1211 24.4844C25.9102 24.6719 25.6504 24.8242 25.3418 24.9414C25.0371 25.0586 24.6758 25.1172 24.2578 25.1172ZM29.8359 24.0215L31.5703 18.6602H32.6777L30.3984 25H29.6719L29.8359 24.0215ZM28.3887 18.6602L30.1758 24.0508L30.2988 25H29.5723L27.2754 18.6602H28.3887ZM36.2695 25.1172C35.8281 25.1172 35.4277 25.043 35.0684 24.8945C34.7129 24.7422 34.4062 24.5293 34.1484 24.2559C33.8945 23.9824 33.6992 23.6582 33.5625 23.2832C33.4258 22.9082 33.3574 22.498 33.3574 22.0527V21.8066C33.3574 21.291 33.4336 20.832 33.5859 20.4297C33.7383 20.0234 33.9453 19.6797 34.207 19.3984C34.4688 19.1172 34.7656 18.9043 35.0977 18.7598C35.4297 18.6152 35.7734 18.543 36.1289 18.543C36.582 18.543 36.9727 18.6211 37.3008 18.7773C37.6328 18.9336 37.9043 19.1523 38.1152 19.4336C38.3262 19.7109 38.4824 20.0391 38.584 20.418C38.6855 20.793 38.7363 21.2031 38.7363 21.6484V22.1348H34.002V21.25H37.6523V21.168C37.6367 20.8867 37.5781 20.6133 37.4766 20.3477C37.3789 20.082 37.2227 19.8633 37.0078 19.6914C36.793 19.5195 36.5 19.4336 36.1289 19.4336C35.8828 19.4336 35.6562 19.4863 35.4492 19.5918C35.2422 19.6934 35.0645 19.8457 34.916 20.0488C34.7676 20.252 34.6523 20.5 34.5703 20.793C34.4883 21.0859 34.4473 21.4238 34.4473 21.8066V22.0527C34.4473 22.3535 34.4883 22.6367 34.5703 22.9023C34.6562 23.1641 34.7793 23.3945 34.9395 23.5938C35.1035 23.793 35.3008 23.9492 35.5312 24.0625C35.7656 24.1758 36.0312 24.2324 36.3281 24.2324C36.7109 24.2324 37.0352 24.1543 37.3008 23.998C37.5664 23.8418 37.7988 23.6328 37.998 23.3711L38.6543 23.8926C38.5176 24.0996 38.3438 24.2969 38.1328 24.4844C37.9219 24.6719 37.6621 24.8242 37.3535 24.9414C37.0488 25.0586 36.6875 25.1172 36.2695 25.1172ZM41.1797 16V25H40.0898V16H41.1797ZM42.6328 21.9004V21.7656C42.6328 21.3086 42.6992 20.8848 42.832 20.4941C42.9648 20.0996 43.1562 19.7578 43.4062 19.4688C43.6562 19.1758 43.959 18.9492 44.3145 18.7891C44.6699 18.625 45.0684 18.543 45.5098 18.543C45.9551 18.543 46.3555 18.625 46.7109 18.7891C47.0703 18.9492 47.375 19.1758 47.625 19.4688C47.8789 19.7578 48.0723 20.0996 48.2051 20.4941C48.3379 20.8848 48.4043 21.3086 48.4043 21.7656V21.9004C48.4043 22.3574 48.3379 22.7812 48.2051 23.1719C48.0723 23.5625 47.8789 23.9043 47.625 24.1973C47.375 24.4863 47.0723 24.7129 46.7168 24.877C46.3652 25.0371 45.9668 25.1172 45.5215 25.1172C45.0762 25.1172 44.6758 25.0371 44.3203 24.877C43.9648 24.7129 43.6602 24.4863 43.4062 24.1973C43.1562 23.9043 42.9648 23.5625 42.832 23.1719C42.6992 22.7812 42.6328 22.3574 42.6328 21.9004ZM43.7168 21.7656V21.9004C43.7168 22.2168 43.7539 22.5156 43.8281 22.7969C43.9023 23.0742 44.0137 23.3203 44.1621 23.5352C44.3145 23.75 44.5039 23.9199 44.7305 24.0449C44.957 24.166 45.2207 24.2266 45.5215 24.2266C45.8184 24.2266 46.0781 24.166 46.3008 24.0449C46.5273 23.9199 46.7148 23.75 46.8633 23.5352C47.0117 23.3203 47.123 23.0742 47.1973 22.7969C47.2754 22.5156 47.3145 22.2168 47.3145 21.9004V21.7656C47.3145 21.4531 47.2754 21.1582 47.1973 20.8809C47.123 20.5996 47.0098 20.3516 46.8574 20.1367C46.709 19.918 46.5215 19.7461 46.2949 19.6211C46.0723 19.4961 45.8105 19.4336 45.5098 19.4336C45.2129 19.4336 44.9512 19.4961 44.7246 19.6211C44.502 19.7461 44.3145 19.918 44.1621 20.1367C44.0137 20.3516 43.9023 20.5996 43.8281 20.8809C43.7539 21.1582 43.7168 21.4531 43.7168 21.7656ZM50.8477 19.8789V27.4375H49.7578V18.6602H50.7539L50.8477 19.8789ZM55.1191 21.7773V21.9004C55.1191 22.3613 55.0645 22.7891 54.9551 23.1836C54.8457 23.5742 54.6855 23.9141 54.4746 24.2031C54.2676 24.4922 54.0117 24.7168 53.707 24.877C53.4023 25.0371 53.0527 25.1172 52.6582 25.1172C52.2559 25.1172 51.9004 25.0508 51.5918 24.918C51.2832 24.7852 51.0215 24.5918 50.8066 24.3379C50.5918 24.084 50.4199 23.7793 50.291 23.4238C50.166 23.0684 50.0801 22.668 50.0332 22.2227V21.5664C50.0801 21.0977 50.168 20.6777 50.2969 20.3066C50.4258 19.9355 50.5957 19.6191 50.8066 19.3574C51.0215 19.0918 51.2812 18.8906 51.5859 18.7539C51.8906 18.6133 52.2422 18.543 52.6406 18.543C53.0391 18.543 53.3926 18.6211 53.7012 18.7773C54.0098 18.9297 54.2695 19.1484 54.4805 19.4336C54.6914 19.7188 54.8496 20.0605 54.9551 20.459C55.0645 20.8535 55.1191 21.293 55.1191 21.7773ZM54.0293 21.9004V21.7773C54.0293 21.4609 53.9961 21.1641 53.9297 20.8867C53.8633 20.6055 53.7598 20.3594 53.6191 20.1484C53.4824 19.9336 53.3066 19.7656 53.0918 19.6445C52.877 19.5195 52.6211 19.457 52.3242 19.457C52.0508 19.457 51.8125 19.5039 51.6094 19.5977C51.4102 19.6914 51.2402 19.8184 51.0996 19.9785C50.959 20.1348 50.8438 20.3145 50.7539 20.5176C50.668 20.7168 50.6035 20.9238 50.5605 21.1387V22.6562C50.6387 22.9297 50.748 23.1875 50.8887 23.4297C51.0293 23.668 51.2168 23.8613 51.4512 24.0098C51.6855 24.1543 51.9805 24.2266 52.3359 24.2266C52.6289 24.2266 52.8809 24.166 53.0918 24.0449C53.3066 23.9199 53.4824 23.75 53.6191 23.5352C53.7598 23.3203 53.8633 23.0742 53.9297 22.7969C53.9961 22.5156 54.0293 22.2168 54.0293 21.9004ZM59.1328 25.1172C58.6914 25.1172 58.291 25.043 57.9316 24.8945C57.5762 24.7422 57.2695 24.5293 57.0117 24.2559C56.7578 23.9824 56.5625 23.6582 56.4258 23.2832C56.2891 22.9082 56.2207 22.498 56.2207 22.0527V21.8066C56.2207 21.291 56.2969 20.832 56.4492 20.4297C56.6016 20.0234 56.8086 19.6797 57.0703 19.3984C57.332 19.1172 57.6289 18.9043 57.9609 18.7598C58.293 18.6152 58.6367 18.543 58.9922 18.543C59.4453 18.543 59.8359 18.6211 60.1641 18.7773C60.4961 18.9336 60.7676 19.1523 60.9785 19.4336C61.1895 19.7109 61.3457 20.0391 61.4473 20.418C61.5488 20.793 61.5996 21.2031 61.5996 21.6484V22.1348H56.8652V21.25H60.5156V21.168C60.5 20.8867 60.4414 20.6133 60.3398 20.3477C60.2422 20.082 60.0859 19.8633 59.8711 19.6914C59.6562 19.5195 59.3633 19.4336 58.9922 19.4336C58.7461 19.4336 58.5195 19.4863 58.3125 19.5918C58.1055 19.6934 57.9277 19.8457 57.7793 20.0488C57.6309 20.252 57.5156 20.5 57.4336 20.793C57.3516 21.0859 57.3105 21.4238 57.3105 21.8066V22.0527C57.3105 22.3535 57.3516 22.6367 57.4336 22.9023C57.5195 23.1641 57.6426 23.3945 57.8027 23.5938C57.9668 23.793 58.1641 23.9492 58.3945 24.0625C58.6289 24.1758 58.8945 24.2324 59.1914 24.2324C59.5742 24.2324 59.8984 24.1543 60.1641 23.998C60.4297 23.8418 60.6621 23.6328 60.8613 23.3711L61.5176 23.8926C61.3809 24.0996 61.207 24.2969 60.9961 24.4844C60.7852 24.6719 60.5254 24.8242 60.2168 24.9414C59.9121 25.0586 59.5508 25.1172 59.1328 25.1172ZM63.9492 19.6562V25H62.8652V18.6602H63.9199L63.9492 19.6562ZM65.9297 18.625L65.9238 19.6328C65.834 19.6133 65.748 19.6016 65.666 19.5977C65.5879 19.5898 65.498 19.5859 65.3965 19.5859C65.1465 19.5859 64.9258 19.625 64.7344 19.7031C64.543 19.7812 64.3809 19.8906 64.248 20.0312C64.1152 20.1719 64.0098 20.3398 63.9316 20.5352C63.8574 20.7266 63.8086 20.9375 63.7852 21.168L63.4805 21.3438C63.4805 20.9609 63.5176 20.6016 63.5918 20.2656C63.6699 19.9297 63.7891 19.6328 63.9492 19.375C64.1094 19.1133 64.3125 18.9102 64.5586 18.7656C64.8086 18.6172 65.1055 18.543 65.4492 18.543C65.5273 18.543 65.6172 18.5527 65.7188 18.5723C65.8203 18.5879 65.8906 18.6055 65.9297 18.625Z" fill="url(#paint2_linear_3_6)"/>
<circle cx="15" cy="8" r="6" fill="url(#paint3_radial_3_6)"/>
<defs>
<linearGradient id="paint0_linear_3_6" x1="2" y1="11" x2="27" y2="11" gradientUnits="userSpaceOnUse">
<stop/>
<stop offset="1" stop-color="#FB0404"/>
</linearGradient>
<linearGradient id="paint1_linear_3_6" x1="2.5" y1="25" x2="11.5" y2="25" gradientUnits="userSpaceOnUse">
<stop stop-color="#FF0A0A"/>
<stop offset="1" stop-color="#18E683"/>
</linearGradient>
<linearGradient id="paint2_linear_3_6" x1="14" y1="25" x2="67" y2="25" gradientUnits="userSpaceOnUse">
<stop stop-color="#040404"/>
<stop offset="1" stop-color="#EE0D0D"/>
</linearGradient>
<radialGradient id="paint3_radial_3_6" cx="0" cy="0" r="1" gradientUnits="userSpaceOnUse" gradientTransform="translate(15 8) rotate(90) scale(6)">
<stop stop-color="#EF0C1A" stop-opacity="0.59"/>
<stop offset="1" stop-color="#0026AC" stop-opacity="0"/>
</radialGradient>
</defs>
</svg>
